<mxfile host="app.diagrams.net" agent="Mozilla/5.0 (X11; Linux x86_64; rv:109.0) Gecko/20100101 Firefox/115.0" version="24.7.16">
  <diagram name="Page-1" id="XoPJWBir9Vbk6gXuCHSs">
    <mxGraphModel dx="2058" dy="627" grid="1" gridSize="10" guides="1" tooltips="1" connect="1" arrows="1" fold="1" page="1" pageScale="1" pageWidth="850" pageHeight="1100" math="0" shadow="0">
      <root>
        <mxCell id="0" />
        <mxCell id="1" parent="0" />
        <mxCell id="_nbMLIjrXnSEo0Go5jzw-1" value="S&#39;authentifier" style="ellipse;whiteSpace=wrap;html=1;fillColor=#cdeb8b;strokeColor=#36393d;" vertex="1" parent="1">
          <mxGeometry x="480" y="150" width="120" height="70" as="geometry" />
        </mxCell>
        <mxCell id="_nbMLIjrXnSEo0Go5jzw-2" value="Visualiser le tableau de bord de l&#39;app" style="ellipse;whiteSpace=wrap;html=1;fillColor=#dae8fc;strokeColor=#6c8ebf;" vertex="1" parent="1">
          <mxGeometry x="210" y="35" width="140" height="70" as="geometry" />
        </mxCell>
        <mxCell id="_nbMLIjrXnSEo0Go5jzw-3" value="&amp;lt;&amp;lt;include&amp;gt;&amp;gt;" style="endArrow=open;endSize=12;dashed=1;html=1;rounded=0;exitX=1;exitY=0.5;exitDx=0;exitDy=0;" edge="1" parent="1" source="_nbMLIjrXnSEo0Go5jzw-2" target="_nbMLIjrXnSEo0Go5jzw-1">
          <mxGeometry width="160" relative="1" as="geometry">
            <mxPoint x="329.5" y="27.5" as="sourcePoint" />
            <mxPoint x="920.5" y="42.5" as="targetPoint" />
          </mxGeometry>
        </mxCell>
        <mxCell id="_nbMLIjrXnSEo0Go5jzw-5" value="" style="endArrow=none;html=1;rounded=0;exitX=1;exitY=0.3333333333333333;exitDx=0;exitDy=0;exitPerimeter=0;" edge="1" parent="1" source="_nbMLIjrXnSEo0Go5jzw-6" target="_nbMLIjrXnSEo0Go5jzw-2">
          <mxGeometry relative="1" as="geometry">
            <mxPoint x="80" y="70" as="sourcePoint" />
            <mxPoint x="198.31878123554907" y="-44.22138033148897" as="targetPoint" />
          </mxGeometry>
        </mxCell>
        <mxCell id="_nbMLIjrXnSEo0Go5jzw-6" value="Admin" style="shape=umlActor;verticalLabelPosition=bottom;verticalAlign=top;html=1;outlineConnect=0;fillColor=#e1d5e7;strokeColor=#9673a6;" vertex="1" parent="1">
          <mxGeometry x="20" y="40" width="50" height="80" as="geometry" />
        </mxCell>
        <mxCell id="_nbMLIjrXnSEo0Go5jzw-7" value="Visualiser le tableau de bord pour son compte" style="ellipse;whiteSpace=wrap;html=1;fillColor=#dae8fc;strokeColor=#6c8ebf;" vertex="1" parent="1">
          <mxGeometry x="210" y="230" width="140" height="70" as="geometry" />
        </mxCell>
        <mxCell id="_nbMLIjrXnSEo0Go5jzw-8" value="" style="endArrow=none;html=1;rounded=0;" edge="1" parent="1">
          <mxGeometry relative="1" as="geometry">
            <mxPoint x="70" y="264.58000000000004" as="sourcePoint" />
            <mxPoint x="210" y="264.58000000000004" as="targetPoint" />
          </mxGeometry>
        </mxCell>
        <mxCell id="_nbMLIjrXnSEo0Go5jzw-9" value="&amp;lt;&amp;lt;include&amp;gt;&amp;gt;" style="endArrow=open;endSize=12;dashed=1;html=1;rounded=0;exitX=0.974;exitY=0.433;exitDx=0;exitDy=0;exitPerimeter=0;entryX=0.067;entryY=0.814;entryDx=0;entryDy=0;entryPerimeter=0;" edge="1" parent="1" source="_nbMLIjrXnSEo0Go5jzw-7" target="_nbMLIjrXnSEo0Go5jzw-1">
          <mxGeometry width="160" relative="1" as="geometry">
            <mxPoint x="360" y="80" as="sourcePoint" />
            <mxPoint x="500" y="180" as="targetPoint" />
          </mxGeometry>
        </mxCell>
        <mxCell id="_nbMLIjrXnSEo0Go5jzw-10" value="tous les boutiques" style="ellipse;whiteSpace=wrap;html=1;fillColor=#ffe6cc;strokeColor=#d79b00;" vertex="1" parent="1">
          <mxGeometry x="130" y="130" width="100" height="50" as="geometry" />
        </mxCell>
        <mxCell id="_nbMLIjrXnSEo0Go5jzw-11" value="tous les commentaires" style="ellipse;whiteSpace=wrap;html=1;fillColor=#ffe6cc;strokeColor=#d79b00;" vertex="1" parent="1">
          <mxGeometry x="240" y="130" width="100" height="50" as="geometry" />
        </mxCell>
        <mxCell id="_nbMLIjrXnSEo0Go5jzw-12" value="tous les commandes" style="ellipse;whiteSpace=wrap;html=1;fillColor=#ffe6cc;strokeColor=#d79b00;" vertex="1" parent="1">
          <mxGeometry x="350" y="130" width="100" height="50" as="geometry" />
        </mxCell>
        <mxCell id="_nbMLIjrXnSEo0Go5jzw-18" style="rounded=0;orthogonalLoop=1;jettySize=auto;html=1;endArrow=open;endFill=0;dashed=1;" edge="1" parent="1" source="_nbMLIjrXnSEo0Go5jzw-13" target="_nbMLIjrXnSEo0Go5jzw-7">
          <mxGeometry relative="1" as="geometry" />
        </mxCell>
        <mxCell id="_nbMLIjrXnSEo0Go5jzw-19" value="&amp;lt;&amp;lt;extends&amp;gt;&amp;gt;" style="edgeLabel;html=1;align=center;verticalAlign=middle;resizable=0;points=[];" vertex="1" connectable="0" parent="_nbMLIjrXnSEo0Go5jzw-18">
          <mxGeometry x="0.4488" y="1" relative="1" as="geometry">
            <mxPoint x="-15" y="9" as="offset" />
          </mxGeometry>
        </mxCell>
        <mxCell id="_nbMLIjrXnSEo0Go5jzw-13" value="ses boutiques" style="ellipse;whiteSpace=wrap;html=1;fillColor=#ffe6cc;strokeColor=#d79b00;" vertex="1" parent="1">
          <mxGeometry x="100" y="350" width="100" height="50" as="geometry" />
        </mxCell>
        <mxCell id="_nbMLIjrXnSEo0Go5jzw-14" value="commentaires pour ses produits/service/ boutiques" style="ellipse;whiteSpace=wrap;html=1;fillColor=#ffe6cc;strokeColor=#d79b00;" vertex="1" parent="1">
          <mxGeometry x="220" y="340" width="130" height="70" as="geometry" />
        </mxCell>
        <mxCell id="_nbMLIjrXnSEo0Go5jzw-15" value="ses commandes" style="ellipse;whiteSpace=wrap;html=1;fillColor=#ffe6cc;strokeColor=#d79b00;" vertex="1" parent="1">
          <mxGeometry x="380" y="350" width="100" height="50" as="geometry" />
        </mxCell>
        <mxCell id="_nbMLIjrXnSEo0Go5jzw-20" style="rounded=0;orthogonalLoop=1;jettySize=auto;html=1;endArrow=open;endFill=0;dashed=1;entryX=0.678;entryY=0.992;entryDx=0;entryDy=0;entryPerimeter=0;" edge="1" parent="1" source="_nbMLIjrXnSEo0Go5jzw-14" target="_nbMLIjrXnSEo0Go5jzw-7">
          <mxGeometry relative="1" as="geometry">
            <mxPoint x="186" y="364" as="sourcePoint" />
            <mxPoint x="254" y="305" as="targetPoint" />
          </mxGeometry>
        </mxCell>
        <mxCell id="_nbMLIjrXnSEo0Go5jzw-21" value="&amp;lt;&amp;lt;extends&amp;gt;&amp;gt;" style="edgeLabel;html=1;align=center;verticalAlign=middle;resizable=0;points=[];" vertex="1" connectable="0" parent="_nbMLIjrXnSEo0Go5jzw-20">
          <mxGeometry x="0.4488" y="1" relative="1" as="geometry">
            <mxPoint x="-15" y="9" as="offset" />
          </mxGeometry>
        </mxCell>
        <mxCell id="_nbMLIjrXnSEo0Go5jzw-23" style="rounded=0;orthogonalLoop=1;jettySize=auto;html=1;endArrow=open;endFill=0;dashed=1;entryX=0.971;entryY=0.722;entryDx=0;entryDy=0;entryPerimeter=0;exitX=0.271;exitY=0.051;exitDx=0;exitDy=0;exitPerimeter=0;" edge="1" parent="1" source="_nbMLIjrXnSEo0Go5jzw-15" target="_nbMLIjrXnSEo0Go5jzw-7">
          <mxGeometry relative="1" as="geometry">
            <mxPoint x="394.5" y="350" as="sourcePoint" />
            <mxPoint x="405.5" y="309" as="targetPoint" />
          </mxGeometry>
        </mxCell>
        <mxCell id="_nbMLIjrXnSEo0Go5jzw-24" value="&amp;lt;&amp;lt;extends&amp;gt;&amp;gt;" style="edgeLabel;html=1;align=center;verticalAlign=middle;resizable=0;points=[];" vertex="1" connectable="0" parent="_nbMLIjrXnSEo0Go5jzw-23">
          <mxGeometry x="0.4488" y="1" relative="1" as="geometry">
            <mxPoint x="6" y="9" as="offset" />
          </mxGeometry>
        </mxCell>
        <mxCell id="_nbMLIjrXnSEo0Go5jzw-25" style="rounded=0;orthogonalLoop=1;jettySize=auto;html=1;endArrow=open;endFill=0;dashed=1;exitX=0.566;exitY=-0.017;exitDx=0;exitDy=0;exitPerimeter=0;" edge="1" parent="1" source="_nbMLIjrXnSEo0Go5jzw-10">
          <mxGeometry relative="1" as="geometry">
            <mxPoint x="162" y="149" as="sourcePoint" />
            <mxPoint x="230" y="90" as="targetPoint" />
          </mxGeometry>
        </mxCell>
        <mxCell id="_nbMLIjrXnSEo0Go5jzw-26" value="&amp;lt;&amp;lt;extends&amp;gt;&amp;gt;" style="edgeLabel;html=1;align=center;verticalAlign=middle;resizable=0;points=[];" vertex="1" connectable="0" parent="_nbMLIjrXnSEo0Go5jzw-25">
          <mxGeometry x="0.4488" y="1" relative="1" as="geometry">
            <mxPoint x="-15" y="9" as="offset" />
          </mxGeometry>
        </mxCell>
        <mxCell id="_nbMLIjrXnSEo0Go5jzw-27" style="rounded=0;orthogonalLoop=1;jettySize=auto;html=1;endArrow=open;endFill=0;dashed=1;exitX=0.203;exitY=0.154;exitDx=0;exitDy=0;exitPerimeter=0;entryX=0.424;entryY=0.969;entryDx=0;entryDy=0;entryPerimeter=0;" edge="1" parent="1" source="_nbMLIjrXnSEo0Go5jzw-11" target="_nbMLIjrXnSEo0Go5jzw-2">
          <mxGeometry relative="1" as="geometry">
            <mxPoint x="197" y="139" as="sourcePoint" />
            <mxPoint x="240" y="100" as="targetPoint" />
          </mxGeometry>
        </mxCell>
        <mxCell id="_nbMLIjrXnSEo0Go5jzw-28" value="&amp;lt;&amp;lt;extends&amp;gt;&amp;gt;" style="edgeLabel;html=1;align=center;verticalAlign=middle;resizable=0;points=[];" vertex="1" connectable="0" parent="_nbMLIjrXnSEo0Go5jzw-27">
          <mxGeometry x="0.4488" y="1" relative="1" as="geometry">
            <mxPoint x="-15" y="9" as="offset" />
          </mxGeometry>
        </mxCell>
        <mxCell id="_nbMLIjrXnSEo0Go5jzw-29" style="rounded=0;orthogonalLoop=1;jettySize=auto;html=1;endArrow=open;endFill=0;dashed=1;entryX=1;entryY=1;entryDx=0;entryDy=0;" edge="1" parent="1" source="_nbMLIjrXnSEo0Go5jzw-12" target="_nbMLIjrXnSEo0Go5jzw-2">
          <mxGeometry relative="1" as="geometry">
            <mxPoint x="197" y="139" as="sourcePoint" />
            <mxPoint x="240" y="100" as="targetPoint" />
          </mxGeometry>
        </mxCell>
        <mxCell id="_nbMLIjrXnSEo0Go5jzw-30" value="&amp;lt;&amp;lt;extends&amp;gt;&amp;gt;" style="edgeLabel;html=1;align=center;verticalAlign=middle;resizable=0;points=[];" vertex="1" connectable="0" parent="_nbMLIjrXnSEo0Go5jzw-29">
          <mxGeometry x="0.4488" y="1" relative="1" as="geometry">
            <mxPoint x="-15" y="9" as="offset" />
          </mxGeometry>
        </mxCell>
        <mxCell id="_nbMLIjrXnSEo0Go5jzw-62" value="Vertical Container" style="swimlane;whiteSpace=wrap;html=1;" vertex="1" parent="1">
          <mxGeometry x="90" y="10" width="520" height="400" as="geometry" />
        </mxCell>
        <mxCell id="_nbMLIjrXnSEo0Go5jzw-63" value="Profil d&#39;entreprise" style="shape=umlActor;verticalLabelPosition=bottom;verticalAlign=top;html=1;outlineConnect=0;fillColor=#e1d5e7;strokeColor=#9673a6;" vertex="1" parent="1">
          <mxGeometry x="20" y="220" width="50" height="80" as="geometry" />
        </mxCell>
      </root>
    </mxGraphModel>
  </diagram>
</mxfile>
